<svg width="308" height="82" viewBox="0 0 308 82" fill="none" xmlns="http://www.w3.org/2000/svg">
<path d="M34.167 78.1962C33.7249 78.1962 33.328 78.1058 32.9763 77.9249C32.6246 77.744 32.3282 77.5029 32.087 77.2014C31.8459 76.9 31.66 76.5533 31.5294 76.1614C31.4088 75.7595 31.3485 75.3374 31.3485 74.8953C31.3485 74.2824 31.4691 73.6895 31.7102 73.1168C31.9514 72.534 32.2729 72.0165 32.6749 71.5643C33.0868 71.1121 33.5541 70.7504 34.0766 70.4791C34.6092 70.2078 35.1618 70.0721 35.7346 70.0721C36.0561 70.0721 36.3475 70.1224 36.6088 70.2228C36.8801 70.3233 37.1212 70.459 37.3323 70.6298C37.5433 70.7906 37.7242 70.9815 37.8749 71.2026C38.0256 71.4236 38.1462 71.6598 38.2366 71.911L39.2615 67.0425H40.0302L37.9201 76.9603C37.9 77.0607 37.89 77.121 37.89 77.1411C37.89 77.2918 37.9754 77.3672 38.1462 77.3672L37.9955 78.0455C37.9251 78.0555 37.8648 78.0605 37.8146 78.0605C37.7644 78.0605 37.7141 78.0605 37.6639 78.0605C37.3222 78.0103 37.1514 77.8294 37.1514 77.5179C37.1514 77.4878 37.1514 77.4576 37.1514 77.4275C37.1614 77.3873 37.1715 77.332 37.1815 77.2617C37.1916 77.1813 37.2067 77.0808 37.2268 76.9603C37.2569 76.8397 37.2921 76.6789 37.3323 76.4779C36.9203 77.0004 36.4279 77.4175 35.8552 77.729C35.2824 78.0404 34.7197 78.1962 34.167 78.1962ZM34.4534 77.5179C34.7046 77.5179 34.986 77.4627 35.2975 77.3521C35.619 77.2416 35.9255 77.0909 36.2169 76.9C36.5083 76.699 36.7696 76.4729 37.0007 76.2217C37.2418 75.9705 37.4076 75.6992 37.4981 75.4078L38.0407 72.8304C38.0005 72.549 37.91 72.2828 37.7694 72.0315C37.6287 71.7703 37.4529 71.5492 37.2418 71.3684C37.0409 71.1774 36.8097 71.0267 36.5485 70.9162C36.2973 70.8056 36.036 70.7504 35.7647 70.7504C35.2724 70.7504 34.8051 70.871 34.363 71.1121C33.9209 71.3533 33.534 71.6698 33.2024 72.0617C32.8708 72.4435 32.6095 72.8756 32.4186 73.3579C32.2277 73.8302 32.1323 74.3025 32.1323 74.7747C32.1323 75.1465 32.1875 75.4982 32.2981 75.8298C32.4086 76.1614 32.5643 76.4528 32.7653 76.704C32.9663 76.9552 33.2074 77.1562 33.4888 77.3069C33.7802 77.4476 34.1017 77.5179 34.4534 77.5179Z" fill="#2B2B2B"/>
<path d="M43.2376 78.1962C42.7654 78.1962 42.3433 78.1108 41.9715 77.94C41.6098 77.7591 41.2983 77.5179 41.037 77.2165C40.7858 76.915 40.5949 76.5633 40.4643 76.1614C40.3337 75.7595 40.2683 75.3324 40.2683 74.8802C40.2683 74.2673 40.3839 73.6744 40.615 73.1017C40.8562 72.5189 41.1878 72.0064 41.6098 71.5643C42.0318 71.1121 42.5242 70.7504 43.0869 70.4791C43.6596 70.2078 44.2776 70.0721 44.9408 70.0721C45.2523 70.0721 45.5538 70.1173 45.8452 70.2078C46.1366 70.2982 46.3928 70.4339 46.6139 70.6147C46.845 70.7855 47.0259 71.0016 47.1565 71.2628C47.2972 71.5241 47.3675 71.8255 47.3675 72.1672C47.3675 73.6744 46.0009 74.4281 43.2678 74.4281C42.9462 74.4281 42.6046 74.423 42.2428 74.413C41.8911 74.4029 41.4993 74.3828 41.0672 74.3527C41.0571 74.4331 41.0471 74.5185 41.037 74.6089C41.037 74.6994 41.037 74.7848 41.037 74.8652C41.037 75.237 41.0823 75.5887 41.1727 75.9202C41.2732 76.2518 41.4189 76.5432 41.6098 76.7945C41.8108 77.0356 42.0569 77.2316 42.3483 77.3823C42.6498 77.523 42.9965 77.5933 43.3884 77.5933C43.6396 77.5933 43.8958 77.5581 44.157 77.4878C44.4283 77.4074 44.6846 77.3019 44.9258 77.1713C45.1669 77.0306 45.388 76.8648 45.5889 76.6739C45.8 76.4729 45.9758 76.2518 46.1165 76.0107L46.7495 76.2066C46.5686 76.5081 46.3476 76.7794 46.0863 77.0205C45.8351 77.2617 45.5538 77.4727 45.2423 77.6536C44.9408 77.8244 44.6193 77.955 44.2776 78.0455C43.936 78.146 43.5893 78.1962 43.2376 78.1962ZM44.8504 70.6901C44.3781 70.6901 43.941 70.7805 43.5391 70.9614C43.1472 71.1322 42.7955 71.3633 42.484 71.6547C42.1725 71.9361 41.9062 72.2627 41.6852 72.6344C41.4641 73.0062 41.2983 73.3881 41.1878 73.7799C41.6098 73.8101 41.9866 73.8302 42.3182 73.8402C42.6598 73.8503 42.9914 73.8553 43.313 73.8553C43.936 73.8553 44.4585 73.8151 44.8805 73.7347C45.3126 73.6443 45.6593 73.5237 45.9205 73.373C46.1818 73.2223 46.3677 73.0464 46.4782 72.8455C46.5988 72.6344 46.6591 72.4033 46.6591 72.1521C46.6591 71.9009 46.6038 71.6849 46.4933 71.504C46.3928 71.3131 46.2572 71.1573 46.0863 71.0368C45.9256 70.9162 45.7346 70.8308 45.5136 70.7805C45.2925 70.7202 45.0714 70.6901 44.8504 70.6901Z" fill="#2B2B2B"/>
<path d="M50.3563 78.1962C49.7836 78.1962 49.251 78.0957 48.7586 77.8947C48.2763 77.6938 47.8844 77.3923 47.583 76.9904L48.0502 76.4779C48.3818 76.8598 48.7385 77.1411 49.1204 77.322C49.5123 77.5029 49.9644 77.5933 50.4769 77.5933C50.8386 77.5933 51.1702 77.5481 51.4717 77.4576C51.7832 77.3672 52.0495 77.2416 52.2705 77.0808C52.5016 76.9201 52.6775 76.7241 52.7981 76.493C52.9287 76.2619 52.994 76.0006 52.994 75.7092C52.994 75.3274 52.8182 75.046 52.4665 74.8652C52.1148 74.6843 51.6124 74.5085 50.9592 74.3376C50.6075 74.2472 50.301 74.1568 50.0398 74.0663C49.7785 73.9759 49.5575 73.8754 49.3766 73.7649C49.2058 73.6443 49.0752 73.5036 48.9847 73.3428C48.8943 73.1821 48.8491 72.9861 48.8491 72.755C48.8491 72.3229 48.9395 71.9411 49.1204 71.6095C49.3012 71.2679 49.5424 70.9865 49.8439 70.7654C50.1453 70.5343 50.492 70.3635 50.8838 70.253C51.2858 70.1324 51.7028 70.0721 52.1349 70.0721C52.7177 70.0721 53.21 70.1776 53.612 70.3886C54.024 70.5896 54.3154 70.8509 54.4862 71.1724L53.9888 71.5794C53.818 71.2779 53.5467 71.0518 53.1749 70.9011C52.8131 70.7504 52.4062 70.675 51.954 70.675C51.6425 70.675 51.3461 70.7152 51.0647 70.7956C50.7834 70.8659 50.5322 70.9815 50.3111 71.1423C50.1001 71.293 49.9293 71.4889 49.7986 71.7301C49.668 71.9612 49.6027 72.2375 49.6027 72.5591C49.6027 72.7299 49.6379 72.8756 49.7082 72.9962C49.7785 73.1067 49.879 73.2072 50.0096 73.2976C50.1503 73.378 50.3262 73.4534 50.5372 73.5237C50.7482 73.584 50.9944 73.6493 51.2757 73.7197C51.6676 73.8201 52.0143 73.9206 52.3157 74.0211C52.6272 74.1216 52.8885 74.2422 53.0995 74.3829C53.3206 74.5135 53.4864 74.6743 53.5969 74.8652C53.7074 75.046 53.7627 75.2671 53.7627 75.5284C53.7627 75.9202 53.6773 76.282 53.5065 76.6136C53.3357 76.9351 53.0995 77.2165 52.7981 77.4576C52.4966 77.6888 52.1349 77.8696 51.7128 78.0003C51.3009 78.1309 50.8487 78.1962 50.3563 78.1962Z" fill="#2B2B2B"/>
<path d="M56.6255 70.2078H57.3792L55.7212 78.0455H54.9676L56.6255 70.2078ZM57.3038 67.0425H58.0574L57.771 68.4292H57.0174L57.3038 67.0425Z" fill="#2B2B2B"/>
<path d="M60.3058 81.4066C59.4417 81.4066 58.7835 81.2408 58.3313 80.9092C57.8892 80.5877 57.5727 80.1506 57.3818 79.5979L57.9545 79.2513C58.1354 79.7838 58.4519 80.1707 58.9041 80.4119C59.3562 80.6631 59.8687 80.7887 60.4415 80.7887C60.8133 80.7887 61.18 80.7334 61.5418 80.6229C61.9035 80.5123 62.2301 80.3465 62.5215 80.1255C62.8229 79.9145 63.0792 79.6482 63.2902 79.3266C63.5112 79.0051 63.667 78.6283 63.7574 78.1962L64.1192 76.4779C63.9182 76.7291 63.6921 76.9603 63.4409 77.1713C63.1897 77.3722 62.9284 77.5481 62.6571 77.6988C62.3858 77.8495 62.1045 77.9651 61.8131 78.0455C61.5217 78.1259 61.2403 78.1661 60.969 78.1661C60.5369 78.1661 60.1501 78.0756 59.8084 77.8947C59.4668 77.7139 59.1754 77.4727 58.9342 77.1713C58.7031 76.8698 58.5222 76.5231 58.3916 76.1313C58.271 75.7394 58.2107 75.3274 58.2107 74.8953C58.2107 74.2924 58.3313 73.7046 58.5725 73.1318C58.8136 72.549 59.1352 72.0315 59.5371 71.5794C59.9491 71.1272 60.4214 70.7654 60.9539 70.4941C61.4865 70.2128 62.0492 70.0721 62.6421 70.0721C63.2851 70.0721 63.8077 70.253 64.2096 70.6147C64.6216 70.9664 64.9431 71.3985 65.1742 71.911L65.536 70.2078H66.2142L64.5111 78.1962C64.4005 78.7288 64.2046 79.196 63.9232 79.5979C63.6519 79.9999 63.3253 80.3315 62.9435 80.5927C62.5617 80.864 62.1447 81.065 61.6925 81.1956C61.2403 81.3363 60.7781 81.4066 60.3058 81.4066ZM61.3006 77.5179C61.6121 77.5179 61.9286 77.4576 62.2502 77.3371C62.5818 77.2064 62.8882 77.0406 63.1696 76.8397C63.4509 76.6387 63.6971 76.4126 63.9082 76.1614C64.1192 75.9102 64.2699 75.659 64.3603 75.4078L64.9029 72.8304C64.8527 72.5289 64.7572 72.2526 64.6166 72.0014C64.4859 71.7401 64.3201 71.5191 64.1192 71.3382C63.9182 71.1573 63.6871 71.0167 63.4258 70.9162C63.1646 70.8056 62.8933 70.7504 62.6119 70.7504C62.0994 70.7504 61.6221 70.876 61.18 71.1272C60.7479 71.3784 60.3661 71.6999 60.0345 72.0918C59.713 72.4737 59.4567 72.9057 59.2658 73.3881C59.0849 73.8603 58.9945 74.3226 58.9945 74.7747C58.9945 75.1465 59.0498 75.4982 59.1603 75.8298C59.2708 76.1614 59.4266 76.4528 59.6276 76.704C59.8285 76.9552 60.0697 77.1562 60.351 77.3069C60.6324 77.4476 60.9489 77.5179 61.3006 77.5179Z" fill="#2B2B2B"/>
<path d="M68.4892 70.2078H69.1977L68.7907 72.0768C69.0017 71.7753 69.2479 71.504 69.5293 71.2628C69.8106 71.0116 70.107 70.8006 70.4185 70.6298C70.7401 70.4489 71.0666 70.3133 71.3982 70.2228C71.7399 70.1224 72.0765 70.0721 72.4081 70.0721C73.011 70.0721 73.4431 70.2329 73.7043 70.5544C73.9656 70.876 74.0962 71.3432 74.0962 71.9562C74.0962 72.1873 74.0761 72.4335 74.0359 72.6947C74.0058 72.956 73.9606 73.2373 73.9003 73.5388L72.9507 78.0455H72.1971L73.1165 73.6744C73.1768 73.3931 73.217 73.1369 73.2371 72.9057C73.2672 72.6746 73.2823 72.4636 73.2823 72.2727C73.2823 71.2679 72.8653 70.7654 72.0313 70.7654C71.7198 70.7654 71.3982 70.8257 71.0667 70.9463C70.7351 71.0669 70.4135 71.2377 70.102 71.4588C69.8006 71.6798 69.5192 71.9411 69.258 72.2426C68.9967 72.534 68.7807 72.8505 68.6098 73.1921L67.5849 78.0455H66.8313L68.4892 70.2078Z" fill="#2B2B2B"/>
<path d="M77.7949 80.8037C78.1064 80.7535 78.3676 80.6831 78.5786 80.5927C78.7997 80.5123 79.0007 80.4018 79.1815 80.2611C79.3624 80.1204 79.5332 79.9396 79.694 79.7185C79.8648 79.5075 80.0507 79.2462 80.2517 78.9347L80.7943 78.1208L79.1213 70.2077H79.905L81.3218 77.3069L82.0453 76.1614C82.4975 75.4379 82.8743 74.8099 83.1758 74.2773C83.4873 73.7347 83.7535 73.2373 83.9746 72.7851C84.1957 72.333 84.3816 71.9059 84.5323 71.504C84.683 71.092 84.8187 70.6599 84.9392 70.2077H85.6929C85.5522 70.6901 85.4065 71.1422 85.2558 71.5643C85.105 71.9762 84.9141 72.4184 84.683 72.8906C84.4619 73.3529 84.1806 73.8704 83.839 74.4431C83.5074 75.0159 83.0903 75.6992 82.5879 76.493L81.352 78.4373C81.0003 79 80.6838 79.4623 80.4024 79.824C80.1311 80.1958 79.8648 80.4922 79.6036 80.7133C79.3423 80.9444 79.076 81.1102 78.8047 81.2107C78.5334 81.3212 78.227 81.3915 77.8853 81.4217L77.7949 80.8037Z" fill="#2B2B2B"/>
<path d="M88.7769 78.1962C88.3247 78.1962 87.9177 78.1108 87.556 77.94C87.2043 77.7691 86.9028 77.538 86.6516 77.2466C86.4105 76.9452 86.2195 76.5985 86.0789 76.2066C85.9482 75.8047 85.8829 75.3776 85.8829 74.9255C85.8829 74.2924 86.0085 73.6845 86.2597 73.1017C86.521 72.5088 86.8677 71.9913 87.2997 71.5492C87.7318 71.097 88.2242 70.7403 88.7769 70.4791C89.3396 70.2078 89.9173 70.0721 90.5102 70.0721C90.9523 70.0721 91.3492 70.1625 91.7009 70.3434C92.0627 70.5142 92.3641 70.7504 92.6053 71.0518C92.8565 71.3432 93.0474 71.6899 93.178 72.0918C93.3187 72.4938 93.389 72.9208 93.389 73.373C93.389 73.996 93.2584 74.5989 92.9972 75.1817C92.7459 75.7645 92.4043 76.282 91.9722 76.7342C91.5502 77.1763 91.0629 77.533 90.5102 77.8043C89.9575 78.0656 89.3798 78.1962 88.7769 78.1962ZM88.9125 77.5179C89.3647 77.5179 89.8118 77.4074 90.254 77.1863C90.7061 76.9653 91.103 76.6688 91.4447 76.2971C91.7964 75.9253 92.0777 75.4982 92.2888 75.0159C92.5098 74.5235 92.6203 74.0111 92.6203 73.4785C92.6203 73.0967 92.5651 72.7399 92.4545 72.4084C92.344 72.0768 92.1883 71.7904 91.9873 71.5492C91.7964 71.298 91.5602 71.1021 91.2789 70.9614C90.9975 70.8207 90.6911 70.7504 90.3595 70.7504C89.9073 70.7504 89.4601 70.8609 89.018 71.082C88.5859 71.303 88.1941 71.6045 87.8424 71.9863C87.4907 72.3581 87.2043 72.7902 86.9832 73.2826C86.7722 73.7749 86.6667 74.2924 86.6667 74.835C86.6667 75.2169 86.722 75.5736 86.8325 75.9052C86.943 76.2267 87.0938 76.5081 87.2847 76.7492C87.4856 76.9904 87.7218 77.1813 87.9931 77.322C88.2744 77.4526 88.5809 77.5179 88.9125 77.5179Z" fill="#2B2B2B"/>
<path d="M96.4994 78.1962C95.2835 78.1962 94.6756 77.5129 94.6756 76.1463C94.6756 75.9453 94.6857 75.7293 94.7058 75.4982C94.7359 75.257 94.7811 75.0008 94.8414 74.7295L95.8211 70.2077H96.5597L95.6252 74.624C95.5147 75.1264 95.4594 75.5534 95.4594 75.9051C95.4594 76.9803 95.9266 77.5179 96.8611 77.5179C97.1726 77.5179 97.4892 77.4626 97.8107 77.3521C98.1322 77.2315 98.4387 77.0707 98.7301 76.8698C99.0316 76.6588 99.3129 76.4076 99.5742 76.1162C99.8354 75.8248 100.057 75.5032 100.237 75.1515L101.277 70.2077H102.031L100.644 76.7643C100.624 76.8447 100.604 76.92 100.584 76.9904C100.574 77.0607 100.569 77.1059 100.569 77.126C100.569 77.2868 100.654 77.3672 100.825 77.3672L100.674 78.0454C100.604 78.0555 100.544 78.0605 100.494 78.0605C100.443 78.0605 100.393 78.0605 100.343 78.0605C100.182 78.0605 100.057 78.0103 99.9661 77.9098C99.8857 77.7993 99.8455 77.6736 99.8455 77.533C99.8455 77.5028 99.8455 77.4677 99.8455 77.4275C99.8555 77.3873 99.8656 77.322 99.8756 77.2315C99.8957 77.1411 99.9209 77.0155 99.951 76.8547C99.9912 76.6839 100.041 76.4628 100.102 76.1915C99.6395 76.8246 99.0868 77.3169 98.4438 77.6686C97.8107 78.0203 97.1626 78.1962 96.4994 78.1962Z" fill="#2B2B2B"/>
<path d="M104.375 70.2078H105.098L104.676 72.137C105.098 71.5341 105.581 71.0619 106.123 70.7202C106.676 70.3685 107.208 70.1927 107.721 70.1927C107.821 70.1927 107.892 70.1977 107.932 70.2078L107.781 70.886C107.108 70.9061 106.48 71.1171 105.897 71.5191C105.324 71.911 104.862 72.4536 104.51 73.1469L103.47 78.0455H102.717L104.375 70.2078Z" fill="#2B2B2B"/>
<path d="M112.941 70.2078H113.65L113.243 72.0768C113.685 71.4437 114.192 70.9513 114.765 70.5997C115.338 70.248 115.921 70.0721 116.514 70.0721C117.127 70.0721 117.574 70.263 117.855 70.6449C118.146 71.0167 118.292 71.5492 118.292 72.2426C118.714 71.5291 119.222 70.9915 119.814 70.6298C120.417 70.258 121.035 70.0721 121.668 70.0721C122.271 70.0721 122.708 70.2429 122.98 70.5846C123.251 70.9162 123.387 71.3935 123.387 72.0165C123.387 72.4586 123.326 72.966 123.206 73.5388L122.241 78.0455H121.487L122.422 73.6744C122.522 73.1821 122.573 72.7349 122.573 72.333C122.573 71.288 122.141 70.7654 121.276 70.7654C120.975 70.7654 120.674 70.8257 120.372 70.9463C120.081 71.0669 119.799 71.2327 119.528 71.4437C119.257 71.6547 119.001 71.911 118.759 72.2124C118.528 72.5139 118.327 72.8455 118.156 73.2072L117.147 78.0455H116.393L117.312 73.6744C117.373 73.4031 117.413 73.157 117.433 72.9359C117.463 72.7048 117.478 72.4938 117.478 72.3028C117.478 71.2779 117.051 70.7654 116.197 70.7654C115.896 70.7654 115.594 70.8257 115.293 70.9463C114.991 71.0569 114.705 71.2226 114.434 71.4437C114.162 71.6547 113.911 71.911 113.68 72.2124C113.449 72.5038 113.243 72.8304 113.062 73.1921L112.037 78.0455H111.283L112.941 70.2078Z" fill="#2B2B2B"/>
<path d="M127.638 78.1962C127.166 78.1962 126.743 78.1108 126.372 77.94C126.01 77.7591 125.698 77.5179 125.437 77.2165C125.186 76.915 124.995 76.5633 124.864 76.1614C124.734 75.7595 124.669 75.3324 124.669 74.8802C124.669 74.2673 124.784 73.6744 125.015 73.1017C125.256 72.5189 125.588 72.0064 126.01 71.5643C126.432 71.1121 126.924 70.7504 127.487 70.4791C128.06 70.2078 128.678 70.0721 129.341 70.0721C129.652 70.0721 129.954 70.1173 130.245 70.2078C130.537 70.2982 130.793 70.4339 131.014 70.6147C131.245 70.7855 131.426 71.0016 131.557 71.2628C131.697 71.5241 131.768 71.8255 131.768 72.1672C131.768 73.6744 130.401 74.4281 127.668 74.4281C127.346 74.4281 127.005 74.423 126.643 74.413C126.291 74.4029 125.899 74.3828 125.467 74.3527C125.457 74.4331 125.447 74.5185 125.437 74.6089C125.437 74.6994 125.437 74.7848 125.437 74.8652C125.437 75.237 125.482 75.5887 125.573 75.9202C125.673 76.2518 125.819 76.5432 126.01 76.7945C126.211 77.0356 126.457 77.2316 126.749 77.3823C127.05 77.523 127.397 77.5933 127.789 77.5933C128.04 77.5933 128.296 77.5581 128.557 77.4878C128.829 77.4074 129.085 77.3019 129.326 77.1713C129.567 77.0306 129.788 76.8648 129.989 76.6739C130.2 76.4729 130.376 76.2518 130.517 76.0107L131.15 76.2066C130.969 76.5081 130.748 76.7794 130.486 77.0205C130.235 77.2617 129.954 77.4727 129.642 77.6536C129.341 77.8244 129.019 77.955 128.678 78.0455C128.336 78.146 127.989 78.1962 127.638 78.1962ZM129.251 70.6901C128.778 70.6901 128.341 70.7805 127.939 70.9614C127.547 71.1322 127.196 71.3633 126.884 71.6547C126.573 71.9361 126.306 72.2627 126.085 72.6344C125.864 73.0062 125.698 73.3881 125.588 73.7799C126.01 73.8101 126.387 73.8302 126.718 73.8402C127.06 73.8503 127.392 73.8553 127.713 73.8553C128.336 73.8553 128.859 73.8151 129.281 73.7347C129.713 73.6443 130.059 73.5237 130.321 73.373C130.582 73.2223 130.768 73.0464 130.878 72.8455C130.999 72.6344 131.059 72.4033 131.059 72.1521C131.059 71.9009 131.004 71.6849 130.893 71.504C130.793 71.3131 130.657 71.1573 130.486 71.0368C130.326 70.9162 130.135 70.8308 129.914 70.7805C129.693 70.7202 129.472 70.6901 129.251 70.6901Z" fill="#2B2B2B"/>
<path d="M134.078 70.2078H134.787L134.38 72.0768C134.591 71.7753 134.837 71.504 135.118 71.2628C135.4 71.0116 135.696 70.8006 136.007 70.6298C136.329 70.4489 136.656 70.3133 136.987 70.2228C137.329 70.1224 137.665 70.0721 137.997 70.0721C138.6 70.0721 139.032 70.2329 139.293 70.5544C139.555 70.876 139.685 71.3432 139.685 71.9562C139.685 72.1873 139.665 72.4335 139.625 72.6947C139.595 72.956 139.55 73.2373 139.489 73.5388L138.54 78.0455H137.786L138.705 73.6744C138.766 73.3931 138.806 73.1369 138.826 72.9057C138.856 72.6746 138.871 72.4636 138.871 72.2727C138.871 71.2679 138.454 70.7654 137.62 70.7654C137.309 70.7654 136.987 70.8257 136.656 70.9463C136.324 71.0669 136.002 71.2377 135.691 71.4588C135.39 71.6798 135.108 71.9411 134.847 72.2426C134.586 72.534 134.37 72.8505 134.199 73.1921L133.174 78.0455H132.42L134.078 70.2078Z" fill="#2B2B2B"/>
<path d="M143.012 78.1962C141.796 78.1962 141.188 77.5129 141.188 76.1463C141.188 75.9453 141.198 75.7293 141.219 75.4982C141.249 75.257 141.294 75.0008 141.354 74.7295L142.334 70.2077H143.073L142.138 74.624C142.027 75.1264 141.972 75.5534 141.972 75.9051C141.972 76.9803 142.439 77.5179 143.374 77.5179C143.685 77.5179 144.002 77.4626 144.324 77.3521C144.645 77.2315 144.952 77.0707 145.243 76.8698C145.544 76.6588 145.826 76.4076 146.087 76.1162C146.348 75.8248 146.569 75.5032 146.75 75.1515L147.79 70.2077H148.544L147.157 76.7643C147.137 76.8447 147.117 76.92 147.097 76.9904C147.087 77.0607 147.082 77.1059 147.082 77.126C147.082 77.2868 147.167 77.3672 147.338 77.3672L147.187 78.0454C147.117 78.0555 147.057 78.0605 147.006 78.0605C146.956 78.0605 146.906 78.0605 146.856 78.0605C146.695 78.0605 146.569 78.0103 146.479 77.9098C146.399 77.7993 146.358 77.6736 146.358 77.533C146.358 77.5028 146.358 77.4677 146.358 77.4275C146.368 77.3873 146.378 77.322 146.388 77.2315C146.409 77.1411 146.434 77.0155 146.464 76.8547C146.504 76.6839 146.554 76.4628 146.615 76.1915C146.152 76.8246 145.6 77.3169 144.957 77.6686C144.324 78.0203 143.675 78.1962 143.012 78.1962Z" fill="#2B2B2B"/>
<path d="M149.275 79.2663L149.742 78.0756H149.471L149.742 76.7643H150.511L150.224 78.0756L149.682 79.2663H149.275Z" fill="#2B2B2B"/>
<path d="M159.604 78.1962C159.162 78.1962 158.765 78.1058 158.414 77.9249C158.062 77.744 157.766 77.5029 157.524 77.2014C157.283 76.9 157.097 76.5533 156.967 76.1614C156.846 75.7595 156.786 75.3374 156.786 74.8953C156.786 74.2824 156.906 73.6895 157.148 73.1168C157.389 72.534 157.71 72.0165 158.112 71.5643C158.524 71.1121 158.992 70.7504 159.514 70.4791C160.047 70.2078 160.599 70.0721 161.172 70.0721C161.494 70.0721 161.785 70.1224 162.046 70.2228C162.318 70.3233 162.559 70.459 162.77 70.6298C162.981 70.7906 163.162 70.9815 163.312 71.2026C163.463 71.4236 163.584 71.6598 163.674 71.911L164.699 67.0425H165.468L163.358 76.9603C163.337 77.0607 163.327 77.121 163.327 77.1411C163.327 77.2918 163.413 77.3672 163.584 77.3672L163.433 78.0455C163.363 78.0555 163.302 78.0605 163.252 78.0605C163.202 78.0605 163.152 78.0605 163.101 78.0605C162.76 78.0103 162.589 77.8294 162.589 77.5179C162.589 77.4878 162.589 77.4576 162.589 77.4275C162.599 77.3873 162.609 77.332 162.619 77.2617C162.629 77.1813 162.644 77.0808 162.664 76.9603C162.694 76.8397 162.729 76.6789 162.77 76.4779C162.358 77.0004 161.865 77.4175 161.293 77.729C160.72 78.0404 160.157 78.1962 159.604 78.1962ZM159.891 77.5179C160.142 77.5179 160.423 77.4627 160.735 77.3521C161.056 77.2416 161.363 77.0909 161.654 76.9C161.946 76.699 162.207 76.4729 162.438 76.2217C162.679 75.9705 162.845 75.6992 162.935 75.4078L163.478 72.8304C163.438 72.549 163.347 72.2828 163.207 72.0315C163.066 71.7703 162.89 71.5492 162.679 71.3684C162.478 71.1774 162.247 71.0267 161.986 70.9162C161.735 70.8056 161.473 70.7504 161.202 70.7504C160.71 70.7504 160.243 70.871 159.8 71.1121C159.358 71.3533 158.971 71.6698 158.64 72.0617C158.308 72.4435 158.047 72.8756 157.856 73.3579C157.665 73.8302 157.57 74.3025 157.57 74.7747C157.57 75.1465 157.625 75.4982 157.735 75.8298C157.846 76.1614 158.002 76.4528 158.203 76.704C158.404 76.9552 158.645 77.1562 158.926 77.3069C159.218 77.4476 159.539 77.5179 159.891 77.5179Z" fill="#2B2B2B"/>
<path d="M168.675 78.1962C168.203 78.1962 167.781 78.1108 167.409 77.94C167.047 77.7591 166.736 77.5179 166.474 77.2165C166.223 76.915 166.032 76.5633 165.902 76.1614C165.771 75.7595 165.706 75.3324 165.706 74.8802C165.706 74.2673 165.821 73.6744 166.052 73.1017C166.294 72.5189 166.625 72.0064 167.047 71.5643C167.469 71.1121 167.962 70.7504 168.524 70.4791C169.097 70.2078 169.715 70.0721 170.378 70.0721C170.69 70.0721 170.991 70.1173 171.283 70.2078C171.574 70.2982 171.83 70.4339 172.051 70.6147C172.282 70.7855 172.463 71.0016 172.594 71.2628C172.735 71.5241 172.805 71.8255 172.805 72.1672C172.805 73.6744 171.438 74.4281 168.705 74.4281C168.384 74.4281 168.042 74.423 167.68 74.413C167.329 74.4029 166.937 74.3828 166.505 74.3527C166.495 74.4331 166.485 74.5185 166.474 74.6089C166.474 74.6994 166.474 74.7848 166.474 74.8652C166.474 75.237 166.52 75.5887 166.61 75.9202C166.711 76.2518 166.856 76.5432 167.047 76.7945C167.248 77.0356 167.494 77.2316 167.786 77.3823C168.087 77.523 168.434 77.5933 168.826 77.5933C169.077 77.5933 169.333 77.5581 169.594 77.4878C169.866 77.4074 170.122 77.3019 170.363 77.1713C170.604 77.0306 170.825 76.8648 171.026 76.6739C171.237 76.4729 171.413 76.2518 171.554 76.0107L172.187 76.2066C172.006 76.5081 171.785 76.7794 171.524 77.0205C171.273 77.2617 170.991 77.4727 170.68 77.6536C170.378 77.8244 170.057 77.955 169.715 78.0455C169.373 78.146 169.027 78.1962 168.675 78.1962ZM170.288 70.6901C169.816 70.6901 169.378 70.7805 168.977 70.9614C168.585 71.1322 168.233 71.3633 167.921 71.6547C167.61 71.9361 167.344 72.2627 167.123 72.6344C166.902 73.0062 166.736 73.3881 166.625 73.7799C167.047 73.8101 167.424 73.8302 167.756 73.8402C168.097 73.8503 168.429 73.8553 168.75 73.8553C169.373 73.8553 169.896 73.8151 170.318 73.7347C170.75 73.6443 171.097 73.5237 171.358 73.373C171.619 73.2223 171.805 73.0464 171.916 72.8455C172.036 72.6344 172.097 72.4033 172.097 72.1521C172.097 71.9009 172.041 71.6849 171.931 71.504C171.83 71.3131 171.695 71.1573 171.524 71.0368C171.363 70.9162 171.172 70.8308 170.951 70.7805C170.73 70.7202 170.509 70.6901 170.288 70.6901Z" fill="#2B2B2B"/>
<path d="M175.794 78.1962C175.221 78.1962 174.688 78.0957 174.196 77.8947C173.714 77.6938 173.322 77.3923 173.02 76.9904L173.488 76.4779C173.819 76.8598 174.176 77.1411 174.558 77.322C174.95 77.5029 175.402 77.5933 175.914 77.5933C176.276 77.5933 176.608 77.5481 176.909 77.4576C177.221 77.3672 177.487 77.2416 177.708 77.0808C177.939 76.9201 178.115 76.7241 178.235 76.493C178.366 76.2619 178.431 76.0006 178.431 75.7092C178.431 75.3274 178.256 75.046 177.904 74.8652C177.552 74.6843 177.05 74.5085 176.397 74.3376C176.045 74.2472 175.738 74.1568 175.477 74.0663C175.216 73.9759 174.995 73.8754 174.814 73.7649C174.643 73.6443 174.513 73.5036 174.422 73.3428C174.332 73.1821 174.286 72.9861 174.286 72.755C174.286 72.3229 174.377 71.9411 174.558 71.6095C174.739 71.2679 174.98 70.9865 175.281 70.7654C175.583 70.5343 175.929 70.3635 176.321 70.253C176.723 70.1324 177.14 70.0721 177.572 70.0721C178.155 70.0721 178.647 70.1776 179.049 70.3886C179.461 70.5896 179.753 70.8509 179.924 71.1724L179.426 71.5794C179.255 71.2779 178.984 71.0518 178.612 70.9011C178.251 70.7504 177.844 70.675 177.391 70.675C177.08 70.675 176.784 70.7152 176.502 70.7956C176.221 70.8659 175.97 70.9815 175.749 71.1423C175.538 71.293 175.367 71.4889 175.236 71.7301C175.105 71.9612 175.04 72.2375 175.04 72.5591C175.04 72.7299 175.075 72.8756 175.146 72.9962C175.216 73.1067 175.316 73.2072 175.447 73.2976C175.588 73.378 175.764 73.4534 175.975 73.5237C176.186 73.584 176.432 73.6493 176.713 73.7197C177.105 73.8201 177.452 73.9206 177.753 74.0211C178.065 74.1216 178.326 74.2422 178.537 74.3829C178.758 74.5135 178.924 74.6743 179.034 74.8652C179.145 75.046 179.2 75.2671 179.2 75.5284C179.2 75.9202 179.115 76.282 178.944 76.6136C178.773 76.9351 178.537 77.2165 178.235 77.4576C177.934 77.6888 177.572 77.8696 177.15 78.0003C176.738 78.1309 176.286 78.1962 175.794 78.1962Z" fill="#2B2B2B"/>
<path d="M182.063 70.2078H182.817L181.159 78.0455H180.405L182.063 70.2078ZM182.741 67.0425H183.495L183.208 68.4292H182.455L182.741 67.0425Z" fill="#2B2B2B"/>
<path d="M185.743 81.4066C184.879 81.4066 184.221 81.2408 183.769 80.9092C183.327 80.5877 183.01 80.1506 182.819 79.5979L183.392 79.2513C183.573 79.7838 183.889 80.1707 184.342 80.4119C184.794 80.6631 185.306 80.7887 185.879 80.7887C186.251 80.7887 186.617 80.7334 186.979 80.6229C187.341 80.5123 187.668 80.3465 187.959 80.1255C188.26 79.9145 188.517 79.6482 188.728 79.3266C188.949 79.0051 189.104 78.6283 189.195 78.1962L189.557 76.4779C189.356 76.7291 189.13 76.9603 188.878 77.1713C188.627 77.3722 188.366 77.5481 188.095 77.6988C187.823 77.8495 187.542 77.9651 187.25 78.0455C186.959 78.1259 186.678 78.1661 186.406 78.1661C185.974 78.1661 185.588 78.0756 185.246 77.8947C184.904 77.7139 184.613 77.4727 184.372 77.1713C184.141 76.8698 183.96 76.5231 183.829 76.1313C183.708 75.7394 183.648 75.3274 183.648 74.8953C183.648 74.2924 183.769 73.7046 184.01 73.1318C184.251 72.549 184.573 72.0315 184.975 71.5794C185.387 71.1272 185.859 70.7654 186.391 70.4941C186.924 70.2128 187.487 70.0721 188.079 70.0721C188.723 70.0721 189.245 70.253 189.647 70.6147C190.059 70.9664 190.381 71.3985 190.612 71.911L190.973 70.2078H191.652L189.948 78.1962C189.838 78.7288 189.642 79.196 189.361 79.5979C189.089 79.9999 188.763 80.3315 188.381 80.5927C187.999 80.864 187.582 81.065 187.13 81.1956C186.678 81.3363 186.216 81.4066 185.743 81.4066ZM186.738 77.5179C187.05 77.5179 187.366 77.4576 187.688 77.3371C188.019 77.2064 188.326 77.0406 188.607 76.8397C188.888 76.6387 189.135 76.4126 189.346 76.1614C189.557 75.9102 189.707 75.659 189.798 75.4078L190.34 72.8304C190.29 72.5289 190.195 72.2526 190.054 72.0014C189.923 71.7401 189.758 71.5191 189.557 71.3382C189.356 71.1573 189.125 71.0167 188.863 70.9162C188.602 70.8056 188.331 70.7504 188.049 70.7504C187.537 70.7504 187.06 70.876 186.617 71.1272C186.185 71.3784 185.804 71.6999 185.472 72.0918C185.15 72.4737 184.894 72.9057 184.703 73.3881C184.522 73.8603 184.432 74.3226 184.432 74.7747C184.432 75.1465 184.487 75.4982 184.598 75.8298C184.708 76.1614 184.864 76.4528 185.065 76.704C185.266 76.9552 185.507 77.1562 185.788 77.3069C186.07 77.4476 186.386 77.5179 186.738 77.5179Z" fill="#2B2B2B"/>
<path d="M193.927 70.2078H194.635L194.228 72.0768C194.439 71.7753 194.685 71.504 194.967 71.2628C195.248 71.0116 195.544 70.8006 195.856 70.6298C196.178 70.4489 196.504 70.3133 196.836 70.2228C197.177 70.1224 197.514 70.0721 197.846 70.0721C198.448 70.0721 198.881 70.2329 199.142 70.5544C199.403 70.876 199.534 71.3432 199.534 71.9562C199.534 72.1873 199.514 72.4335 199.473 72.6947C199.443 72.956 199.398 73.2373 199.338 73.5388L198.388 78.0455H197.635L198.554 73.6744C198.614 73.3931 198.654 73.1369 198.675 72.9057C198.705 72.6746 198.72 72.4636 198.72 72.2727C198.72 71.2679 198.303 70.7654 197.469 70.7654C197.157 70.7654 196.836 70.8257 196.504 70.9463C196.172 71.0669 195.851 71.2377 195.539 71.4588C195.238 71.6798 194.957 71.9411 194.695 72.2426C194.434 72.534 194.218 72.8505 194.047 73.1921L193.022 78.0455H192.269L193.927 70.2078Z" fill="#2B2B2B"/>
<path d="M203.232 80.8037C203.544 80.7535 203.805 80.6831 204.016 80.5927C204.237 80.5123 204.438 80.4018 204.619 80.2611C204.8 80.1204 204.971 79.9396 205.131 79.7185C205.302 79.5075 205.488 79.2462 205.689 78.9347L206.232 78.1208L204.559 70.2077H205.342L206.759 77.3069L207.483 76.1614C207.935 75.4379 208.312 74.8099 208.613 74.2773C208.925 73.7347 209.191 73.2373 209.412 72.7851C209.633 72.333 209.819 71.9059 209.97 71.504C210.12 71.092 210.256 70.6599 210.377 70.2077H211.13C210.99 70.6901 210.844 71.1422 210.693 71.5643C210.542 71.9762 210.352 72.4184 210.12 72.8906C209.899 73.3529 209.618 73.8704 209.276 74.4431C208.945 75.0159 208.528 75.6992 208.025 76.493L206.789 78.4373C206.438 79 206.121 79.4623 205.84 79.824C205.569 80.1958 205.302 80.4922 205.041 80.7133C204.78 80.9444 204.513 81.1102 204.242 81.2107C203.971 81.3212 203.664 81.3915 203.323 81.4217L203.232 80.8037Z" fill="#2B2B2B"/>
<path d="M214.214 78.1962C213.762 78.1962 213.355 78.1108 212.993 77.94C212.642 77.7691 212.34 77.538 212.089 77.2466C211.848 76.9452 211.657 76.5985 211.516 76.2066C211.386 75.8047 211.32 75.3776 211.32 74.9255C211.32 74.2924 211.446 73.6845 211.697 73.1017C211.958 72.5088 212.305 71.9913 212.737 71.5492C213.169 71.097 213.662 70.7403 214.214 70.4791C214.777 70.2078 215.355 70.0721 215.948 70.0721C216.39 70.0721 216.787 70.1625 217.138 70.3434C217.5 70.5142 217.802 70.7504 218.043 71.0518C218.294 71.3432 218.485 71.6899 218.615 72.0918C218.756 72.4938 218.826 72.9208 218.826 73.373C218.826 73.996 218.696 74.5989 218.435 75.1817C218.183 75.7645 217.842 76.282 217.41 76.7342C216.988 77.1763 216.5 77.533 215.948 77.8043C215.395 78.0656 214.817 78.1962 214.214 78.1962ZM214.35 77.5179C214.802 77.5179 215.249 77.4074 215.691 77.1863C216.144 76.9653 216.54 76.6688 216.882 76.2971C217.234 75.9253 217.515 75.4982 217.726 75.0159C217.947 74.5235 218.058 74.0111 218.058 73.4785C218.058 73.0967 218.003 72.7399 217.892 72.4084C217.781 72.0768 217.626 71.7904 217.425 71.5492C217.234 71.298 216.998 71.1021 216.716 70.9614C216.435 70.8207 216.128 70.7504 215.797 70.7504C215.345 70.7504 214.898 70.8609 214.455 71.082C214.023 71.303 213.631 71.6045 213.28 71.9863C212.928 72.3581 212.642 72.7902 212.421 73.2826C212.21 73.7749 212.104 74.2924 212.104 74.835C212.104 75.2169 212.159 75.5736 212.27 75.9052C212.38 76.2267 212.531 76.5081 212.722 76.7492C212.923 76.9904 213.159 77.1813 213.431 77.322C213.712 77.4526 214.018 77.5179 214.35 77.5179Z" fill="#2B2B2B"/>
<path d="M221.937 78.1962C220.721 78.1962 220.113 77.5129 220.113 76.1463C220.113 75.9453 220.123 75.7293 220.143 75.4982C220.173 75.257 220.219 75.0008 220.279 74.7295L221.259 70.2077H221.997L221.063 74.624C220.952 75.1264 220.897 75.5534 220.897 75.9051C220.897 76.9803 221.364 77.5179 222.299 77.5179C222.61 77.5179 222.927 77.4626 223.248 77.3521C223.57 77.2315 223.876 77.0707 224.168 76.8698C224.469 76.6588 224.75 76.4076 225.012 76.1162C225.273 75.8248 225.494 75.5032 225.675 75.1515L226.715 70.2077H227.468L226.082 76.7643C226.062 76.8447 226.042 76.92 226.021 76.9904C226.011 77.0607 226.006 77.1059 226.006 77.126C226.006 77.2868 226.092 77.3672 226.263 77.3672L226.112 78.0454C226.042 78.0555 225.981 78.0605 225.931 78.0605C225.881 78.0605 225.831 78.0605 225.78 78.0605C225.62 78.0605 225.494 78.0103 225.404 77.9098C225.323 77.7993 225.283 77.6736 225.283 77.533C225.283 77.5028 225.283 77.4677 225.283 77.4275C225.293 77.3873 225.303 77.322 225.313 77.2315C225.333 77.1411 225.358 77.0155 225.388 76.8547C225.429 76.6839 225.479 76.4628 225.539 76.1915C225.077 76.8246 224.524 77.3169 223.881 77.6686C223.248 78.0203 222.6 78.1962 221.937 78.1962Z" fill="#2B2B2B"/>
<path d="M229.812 70.2078H230.536L230.114 72.137C230.536 71.5341 231.018 71.0619 231.561 70.7202C232.113 70.3685 232.646 70.1927 233.158 70.1927C233.259 70.1927 233.329 70.1977 233.369 70.2078L233.219 70.886C232.545 70.9061 231.917 71.1171 231.335 71.5191C230.762 71.911 230.3 72.4536 229.948 73.1469L228.908 78.0455H228.154L229.812 70.2078Z" fill="#2B2B2B"/>
<path d="M240.233 78.1962C239.59 78.1962 239.057 78.0304 238.635 77.6988C238.213 77.3672 237.912 76.9603 237.731 76.4779L237.399 78.0455H236.721L239.057 67.0425H239.811L238.771 71.911C239.243 71.3684 239.75 70.9262 240.293 70.5846C240.846 70.2429 241.428 70.0721 242.041 70.0721C242.494 70.0721 242.885 70.1676 243.217 70.3585C243.549 70.5394 243.825 70.7805 244.046 71.082C244.277 71.3834 244.448 71.7301 244.559 72.122C244.669 72.5038 244.724 72.8957 244.724 73.2976C244.724 73.9407 244.594 74.5587 244.332 75.1516C244.081 75.7444 243.745 76.2669 243.323 76.7191C242.901 77.1713 242.418 77.533 241.876 77.8043C241.343 78.0656 240.795 78.1962 240.233 78.1962ZM240.233 77.5179C240.705 77.5179 241.162 77.4024 241.604 77.1713C242.056 76.9402 242.453 76.6337 242.795 76.2518C243.137 75.86 243.408 75.4178 243.609 74.9255C243.82 74.4331 243.925 73.9257 243.925 73.4031C243.925 73.0615 243.875 72.7299 243.775 72.4084C243.684 72.0868 243.544 71.8055 243.353 71.5643C243.162 71.3131 242.931 71.1171 242.659 70.9765C242.388 70.8257 242.072 70.7504 241.71 70.7504C241.408 70.7504 241.112 70.8056 240.821 70.9162C240.539 71.0267 240.268 71.1724 240.007 71.3533C239.745 71.5341 239.494 71.7452 239.253 71.9863C239.022 72.2275 238.801 72.4837 238.59 72.755L237.987 75.6489C238.017 75.9202 238.097 76.1715 238.228 76.4026C238.359 76.6337 238.525 76.8346 238.725 77.0055C238.926 77.1662 239.153 77.2918 239.404 77.3823C239.665 77.4727 239.941 77.5179 240.233 77.5179Z" fill="#2B2B2B"/>
<path d="M247.21 70.2078H247.934L247.512 72.137C247.934 71.5341 248.416 71.0619 248.959 70.7202C249.511 70.3685 250.044 70.1927 250.556 70.1927C250.657 70.1927 250.727 70.1977 250.767 70.2078L250.617 70.886C249.943 70.9061 249.315 71.1171 248.733 71.5191C248.16 71.911 247.698 72.4536 247.346 73.1469L246.306 78.0455H245.552L247.21 70.2078Z" fill="#2B2B2B"/>
<path d="M253.248 78.1962C252.816 78.1962 252.424 78.1058 252.072 77.9249C251.73 77.744 251.439 77.5029 251.198 77.2014C250.957 76.9 250.771 76.5533 250.64 76.1614C250.519 75.7595 250.459 75.3374 250.459 74.8953C250.459 74.2824 250.58 73.6895 250.821 73.1168C251.062 72.534 251.384 72.0165 251.786 71.5643C252.198 71.1121 252.665 70.7504 253.187 70.4791C253.71 70.2078 254.257 70.0721 254.83 70.0721C255.162 70.0721 255.458 70.1224 255.719 70.2228C255.991 70.3233 256.232 70.459 256.443 70.6298C256.654 70.7906 256.835 70.9815 256.986 71.2026C257.136 71.4236 257.257 71.6598 257.347 71.911L257.709 70.2078H258.478L257.031 76.9602C257.011 77.0406 257.001 77.1009 257.001 77.1411C257.001 77.2918 257.086 77.3672 257.257 77.3672L257.106 78.0455C257.056 78.0555 257.011 78.0605 256.971 78.0605C256.94 78.0706 256.91 78.0756 256.88 78.0756C256.679 78.0756 256.523 78.0254 256.413 77.9249C256.312 77.8244 256.262 77.6938 256.262 77.533C256.262 77.5029 256.262 77.4677 256.262 77.4275C256.272 77.3773 256.282 77.317 256.292 77.2466C256.312 77.1662 256.332 77.0658 256.353 76.9452C256.373 76.8246 256.403 76.6688 256.443 76.4779C256.031 77.0004 255.539 77.4174 254.966 77.7289C254.393 78.0404 253.82 78.1962 253.248 78.1962ZM253.519 77.5179C253.79 77.5179 254.087 77.4627 254.408 77.3521C254.73 77.2316 255.036 77.0758 255.328 76.8849C255.629 76.694 255.895 76.4729 256.126 76.2217C256.358 75.9604 256.518 75.6891 256.609 75.4078L257.151 72.8304C257.111 72.549 257.021 72.2827 256.88 72.0315C256.749 71.7803 256.579 71.5593 256.368 71.3683C256.167 71.1774 255.936 71.0267 255.674 70.9162C255.413 70.8056 255.132 70.7504 254.83 70.7504C254.348 70.7504 253.891 70.871 253.459 71.1121C253.027 71.3533 252.645 71.6698 252.313 72.0617C251.992 72.4435 251.73 72.8756 251.529 73.3579C251.338 73.8402 251.243 74.3226 251.243 74.8049C251.243 75.1666 251.298 75.5133 251.409 75.8449C251.519 76.1765 251.675 76.4679 251.876 76.7191C252.077 76.9602 252.318 77.1562 252.599 77.3069C252.881 77.4476 253.187 77.5179 253.519 77.5179Z" fill="#2B2B2B"/>
<path d="M260.811 70.2078H261.519L261.112 72.0768C261.323 71.7753 261.57 71.504 261.851 71.2628C262.132 71.0116 262.429 70.8006 262.74 70.6298C263.062 70.4489 263.388 70.3133 263.72 70.2228C264.062 70.1224 264.398 70.0721 264.73 70.0721C265.333 70.0721 265.765 70.2329 266.026 70.5544C266.287 70.876 266.418 71.3432 266.418 71.9562C266.418 72.1873 266.398 72.4335 266.358 72.6947C266.327 72.956 266.282 73.2373 266.222 73.5388L265.272 78.0455H264.519L265.438 73.6744C265.499 73.3931 265.539 73.1369 265.559 72.9057C265.589 72.6746 265.604 72.4636 265.604 72.2727C265.604 71.2679 265.187 70.7654 264.353 70.7654C264.041 70.7654 263.72 70.8257 263.388 70.9463C263.057 71.0669 262.735 71.2377 262.424 71.4588C262.122 71.6798 261.841 71.9411 261.58 72.2426C261.318 72.534 261.102 72.8505 260.932 73.1921L259.907 78.0455H259.153L260.811 70.2078Z" fill="#2B2B2B"/>
<path d="M270.529 78.1962C270.087 78.1962 269.69 78.1058 269.338 77.9249C268.986 77.744 268.69 77.5029 268.449 77.2014C268.208 76.9 268.022 76.5533 267.891 76.1614C267.77 75.7595 267.71 75.3374 267.71 74.8953C267.71 74.2824 267.831 73.6895 268.072 73.1168C268.313 72.534 268.635 72.0165 269.037 71.5643C269.449 71.1121 269.916 70.7504 270.438 70.4791C270.971 70.2078 271.524 70.0721 272.096 70.0721C272.418 70.0721 272.709 70.1224 272.97 70.2228C273.242 70.3233 273.483 70.459 273.694 70.6298C273.905 70.7906 274.086 70.9815 274.237 71.2026C274.387 71.4236 274.508 71.6598 274.598 71.911L275.623 67.0425H276.392L274.282 76.9603C274.262 77.0607 274.252 77.121 274.252 77.1411C274.252 77.2918 274.337 77.3672 274.508 77.3672L274.357 78.0455C274.287 78.0555 274.226 78.0605 274.176 78.0605C274.126 78.0605 274.076 78.0605 274.026 78.0605C273.684 78.0103 273.513 77.8294 273.513 77.5179C273.513 77.4878 273.513 77.4576 273.513 77.4275C273.523 77.3873 273.533 77.332 273.543 77.2617C273.553 77.1813 273.568 77.0808 273.588 76.9603C273.619 76.8397 273.654 76.6789 273.694 76.4779C273.282 77.0004 272.79 77.4175 272.217 77.729C271.644 78.0404 271.081 78.1962 270.529 78.1962ZM270.815 77.5179C271.066 77.5179 271.348 77.4627 271.659 77.3521C271.981 77.2416 272.287 77.0909 272.579 76.9C272.87 76.699 273.131 76.4729 273.362 76.2217C273.604 75.9705 273.769 75.6992 273.86 75.4078L274.402 72.8304C274.362 72.549 274.272 72.2828 274.131 72.0315C273.99 71.7703 273.815 71.5492 273.603 71.3684C273.403 71.1774 273.171 71.0267 272.91 70.9162C272.659 70.8056 272.398 70.7504 272.126 70.7504C271.634 70.7504 271.167 70.871 270.725 71.1121C270.283 71.3533 269.896 71.6698 269.564 72.0617C269.232 72.4435 268.971 72.8756 268.78 73.3579C268.589 73.8302 268.494 74.3025 268.494 74.7747C268.494 75.1465 268.549 75.4982 268.66 75.8298C268.77 76.1614 268.926 76.4528 269.127 76.704C269.328 76.9552 269.569 77.1562 269.85 77.3069C270.142 77.4476 270.463 77.5179 270.815 77.5179Z" fill="#2B2B2B"/>
<path d="M124.667 5.1548C121.411 1.71827 117.161 0 112.006 0C93.2859 0 83.519 0 82.6146 0H81.8911H64.3467C63.1711 0 62.0859 0.452175 61.2719 1.26609C60.3676 2.17044 60.0059 3.16523 60.0059 4.34088C60.0059 4.43132 60.0059 4.61219 60.0059 4.79306C60.0059 4.97393 60.0059 5.06436 60.0059 5.1548V45.3984C60.0059 46.7549 60.3676 47.8401 61.2719 48.7445C62.1763 49.6488 63.2615 50.0106 64.618 50.0106C65.9746 50.0106 67.0598 49.6488 67.9641 48.7445C68.7781 47.8401 69.2302 46.7549 69.2302 45.3984V19.8957C69.2302 16.5496 70.225 13.8366 72.2146 11.5757C74.2042 9.40525 76.8268 8.32003 80.0824 8.32003C83.1572 8.32003 85.599 9.31481 87.4077 11.2139C89.2164 13.1131 90.2111 15.9166 90.2111 19.534V45.3984C90.2111 46.7549 90.5729 47.8401 91.4773 48.7445C92.3816 49.6488 93.4668 50.0106 94.8234 50.0106C96.1799 50.0106 97.2651 49.6488 98.1694 48.7445C98.9833 47.8401 99.4355 46.7549 99.4355 45.3984V19.8957C99.4355 16.5496 100.43 13.8366 102.42 11.5757C104.409 9.40525 107.032 8.32003 110.197 8.32003C113.272 8.32003 115.714 9.31481 117.523 11.2139C119.331 13.1131 120.326 15.9166 120.326 19.534V45.3984C120.326 46.7549 120.688 47.8401 121.592 48.7445C122.496 49.6488 123.582 50.0106 124.938 50.0106C126.295 50.0106 127.38 49.6488 128.284 48.7445C129.098 47.8401 129.55 46.7549 129.55 45.3984V19.534C129.55 13.3844 127.923 8.59133 124.667 5.1548Z" fill="#2B2B2B"/>
<path d="M188.017 27.3114C188.74 26.5879 189.192 25.5931 189.192 24.4175C189.192 19.7149 188.288 15.4644 186.479 11.7566C184.671 8.13917 182.048 5.24525 178.702 3.16525C175.265 1.17568 171.286 0.0904541 166.674 0.0904541C161.971 0.0904541 157.721 1.17567 154.013 3.34612C150.305 5.51656 147.411 8.50092 145.331 12.2992C143.251 16.0975 142.257 20.4383 142.257 25.2314C142.257 30.1149 143.342 34.3653 145.512 38.1636C147.683 41.9619 150.757 44.9462 154.737 47.1167C158.625 49.2871 163.057 50.2819 168.031 50.2819C170.744 50.2819 173.637 49.8297 176.712 48.7445C179.787 47.7497 182.319 46.3932 184.399 44.7654C185.304 44.0419 185.846 43.1375 185.846 42.0523C185.846 40.9671 185.304 39.8819 184.218 38.9775C183.495 38.4349 182.591 38.0732 181.505 38.0732C180.33 38.0732 179.335 38.4349 178.521 39.068C177.255 40.0628 175.627 40.8767 173.637 41.5097C171.648 42.2332 169.839 42.5045 168.031 42.5045C163.418 42.5045 159.53 41.2384 156.364 38.6158C153.199 36.0836 151.3 32.6471 150.667 28.3966H185.032C186.208 28.3966 187.203 28.0349 188.017 27.3114ZM155.912 11.4853C158.625 9.13396 162.243 7.86787 166.674 7.86787C170.653 7.86787 173.818 9.13396 176.351 11.4853C178.792 13.927 180.33 17.1827 180.872 21.1618H150.757C151.481 17.1827 153.199 13.927 155.912 11.4853Z" fill="#2B2B2B"/>
<path d="M244.547 10.6713C242.648 7.2348 240.025 4.52175 236.77 2.71305C233.604 1.08522 230.168 0.180868 226.37 0.0904333C226.279 0.0904333 226.098 0 226.098 0H205.298C204.032 0 203.037 0.452175 202.223 1.26609C201.319 2.17044 200.957 3.16523 200.957 4.34088C200.957 4.43132 200.957 4.61219 200.957 4.70262C200.957 4.88349 200.957 4.97393 200.957 5.06436V45.3984C200.957 46.7549 201.319 47.8401 202.223 48.7445C203.128 49.6488 204.213 50.0106 205.57 50.0106C206.926 50.0106 208.011 49.6488 208.916 48.7445C209.73 47.8401 210.182 46.7549 210.182 45.3984V19.8957C210.182 17.7253 210.724 15.8261 211.9 14.0174C213.076 12.2992 214.704 10.9426 216.784 9.85742C218.864 8.86264 221.215 8.32003 223.747 8.32003C228.088 8.32003 231.524 9.58611 234.147 12.1183C236.77 14.6505 238.126 18.3583 238.126 23.1514V45.3984C238.126 46.7549 238.488 47.8401 239.392 48.7445C240.297 49.6488 241.382 50.0106 242.738 50.0106C244.004 50.0106 245.09 49.6488 245.994 48.7445C246.898 47.8401 247.351 46.7549 247.351 45.3984V23.1514C247.351 18.2679 246.356 14.1079 244.547 10.6713Z" fill="#2B2B2B"/>
<path d="M308 45.3079V4.97391C308 3.61739 307.548 2.53217 306.734 1.62781C305.83 0.813899 304.744 0.361725 303.388 0.361725C302.031 0.361725 300.946 0.813899 300.042 1.62781C299.137 2.53217 298.776 3.61739 298.776 4.97391V30.4766C298.776 32.7375 298.143 34.6366 296.967 36.3549C295.791 38.1636 294.163 39.5201 292.083 40.5149C290.003 41.6001 287.652 42.0523 285.21 42.0523C280.779 42.0523 277.342 40.8766 274.72 38.3445C272.097 35.8123 270.831 32.1044 270.831 27.2209V4.97391C270.831 3.70782 270.379 2.6226 269.475 1.71825C268.57 0.813902 267.485 0.361725 266.219 0.361725C264.862 0.361725 263.777 0.813902 262.873 1.71825C261.969 2.6226 261.607 3.70782 261.607 4.97391V27.2209C261.607 32.1949 262.511 36.3549 264.41 39.7914C266.219 43.2279 268.842 45.941 272.188 47.6593C275.353 49.468 278.789 50.3723 282.588 50.4627C282.769 50.4627 289.732 50.4627 303.75 50.4627C304.925 50.4627 305.92 50.0106 306.734 49.1967C307.548 48.3827 308 47.388 308 46.1219V45.3079Z" fill="#2B2B2B"/>
<g clip-path="url(#clip0_2_509)">
<path d="M4.74093 5.17866C2.60231 2.72213 -1.31175 5.04685 0.438748 8.91985C1.60481 11.5039 3.85772 17.8188 7.00275 22.3672C10.1493 26.9155 13.5022 26.4292 16.889 27.5307L19.3221 28.789L35.9671 47.9332L39.3333 45.005L39.3509 44.9903C38.8587 44.4234 23.721 27.0108 17.7356 20.1275C11.8117 13.3144 5.781 6.37538 4.74093 5.17866Z" fill="#2B2B2B"/>
<path d="M44.6872 8.7704L38.8806 15.4516C38.5085 15.8794 37.8625 15.9232 37.4347 15.5512L37.2282 15.3726C36.8034 15.002 36.7566 14.3559 37.1286 13.9282L42.963 7.21631C43.921 6.11625 43.4669 5.14209 42.755 4.5239C42.0445 3.90722 41.0177 3.59222 40.0596 4.69387L34.2252 11.4058C33.8546 11.8321 33.2072 11.8775 32.7809 11.5055L32.5758 11.3268C32.148 10.9562 32.1026 10.3087 32.4732 9.88247L38.2813 3.20128C39.9966 1.22962 37.1285 -1.14638 35.4542 0.779903C33.4488 3.08559 29.9083 7.15781 29.9083 7.15781C26.8146 10.6911 26.8614 12.3463 27.2979 14.6651C27.6524 16.5343 28.1724 17.879 26.2521 20.088L23.4176 23.3487L26.3913 26.7662L29.6389 23.0308C31.5578 20.8233 32.9626 21.1514 34.8625 21.2407C37.2209 21.3535 38.8659 21.1689 41.9333 17.6152C41.9333 17.6152 45.4739 13.54 47.4792 11.2343C49.1536 9.30806 46.4011 6.80025 44.6872 8.7704Z" fill="#2B2B2B"/>
<path d="M17.4148 30.2524L4.60331 44.9888L7.98853 47.9331L20.5364 33.5014L17.9539 30.5307L17.4148 30.2524Z" fill="#2B2B2B"/>
<path d="M4.74093 5.17866C2.60231 2.72213 -1.31175 5.04685 0.438748 8.91985C1.60481 11.5039 3.85772 17.8188 7.00275 22.3672C10.1493 26.9155 13.5022 26.4292 16.889 27.5307L19.3221 28.789L35.9671 47.9332L39.3333 45.005L39.3509 44.9903C38.8587 44.4234 23.721 27.0108 17.7356 20.1275C11.8117 13.3144 5.781 6.37538 4.74093 5.17866Z" fill="#2B2B2B"/>
<path d="M44.6872 8.7704L38.8806 15.4516C38.5085 15.8794 37.8625 15.9232 37.4347 15.5512L37.2282 15.3726C36.8034 15.002 36.7566 14.3559 37.1286 13.9282L42.963 7.21631C43.921 6.11625 43.4669 5.14209 42.755 4.5239C42.0445 3.90722 41.0177 3.59222 40.0597 4.69387L34.2252 11.4058C33.8546 11.8321 33.2072 11.8775 32.7809 11.5055L32.5758 11.3268C32.148 10.9562 32.1026 10.3087 32.4732 9.88247L38.2813 3.20128C39.9967 1.22962 37.1285 -1.14638 35.4542 0.779903C33.4488 3.08559 29.9083 7.15781 29.9083 7.15781C26.8146 10.6911 26.8614 12.3463 27.2979 14.6651C27.6524 16.5343 28.1724 17.879 26.2521 20.088L23.4176 23.3487L26.3913 26.7662L29.6389 23.0308C31.5578 20.8233 32.9626 21.1514 34.8625 21.2407C37.2209 21.3535 38.8659 21.1689 41.9333 17.6152C41.9333 17.6152 45.4739 13.54 47.4792 11.2343C49.1536 9.30806 46.4011 6.80025 44.6872 8.7704Z" fill="#2B2B2B"/>
<path d="M17.4148 30.2524L4.60331 44.9888L7.98853 47.9331L20.5364 33.5014L17.9539 30.5307L17.4148 30.2524Z" fill="#2B2B2B"/>
<path d="M4.74093 5.17866C2.60231 2.72213 -1.31175 5.04685 0.438748 8.91985C1.60481 11.5039 3.85772 17.8188 7.00275 22.3672C10.1493 26.9155 13.5022 26.4292 16.889 27.5307L19.3221 28.789L35.9671 47.9332L39.3333 45.005L39.3509 44.9903C38.8587 44.4234 23.721 27.0108 17.7356 20.1275C11.8117 13.3144 5.781 6.37538 4.74093 5.17866Z" fill="#2B2B2B"/>
<path d="M44.6872 8.7704L38.8806 15.4516C38.5085 15.8794 37.8625 15.9232 37.4347 15.5512L37.2282 15.3726C36.8034 15.002 36.7566 14.3559 37.1286 13.9282L42.963 7.21631C43.921 6.11625 43.4669 5.14209 42.755 4.5239C42.0445 3.90722 41.0177 3.59222 40.0597 4.69387L34.2252 11.4058C33.8546 11.8321 33.2072 11.8775 32.7809 11.5055L32.5758 11.3268C32.148 10.9562 32.1026 10.3087 32.4732 9.88247L38.2813 3.20128C39.9967 1.22962 37.1285 -1.14638 35.4542 0.779903C33.4488 3.08559 29.9083 7.15781 29.9083 7.15781C26.8146 10.6911 26.8614 12.3463 27.2979 14.6651C27.6524 16.5343 28.1724 17.879 26.2521 20.088L23.4176 23.3487L26.3913 26.7662L29.6389 23.0308C31.5578 20.8233 32.9626 21.1514 34.8625 21.2407C37.2209 21.3535 38.8659 21.1689 41.9333 17.6152C41.9333 17.6152 45.4739 13.54 47.4792 11.2343C49.1536 9.30806 46.4011 6.80025 44.6872 8.7704Z" fill="#2B2B2B"/>
<path d="M17.4148 30.2524L4.60331 44.9888L7.98853 47.9331L20.5364 33.5014L17.9539 30.5307L17.4148 30.2524Z" fill="#2B2B2B"/>
</g>
<defs>
<clipPath id="clip0_2_509">
<rect width="48" height="48" fill="white"/>
</clipPath>
</defs>
</svg>
