<svg width="717" height="695" viewBox="0 0 717 695" fill="none" xmlns="http://www.w3.org/2000/svg">
<path d="M500.362 104.637C576.285 145.163 671.33 173.869 703.949 232.97C736.005 291.507 705.074 380.44 653.896 439.54C602.718 498.641 531.856 528.472 471.118 550.987C410.942 573.501 360.889 589.261 286.09 623.033C211.854 656.805 112.873 708.588 34.7002 691.702C-42.9102 674.816 -99.712 588.699 -96.9 505.395C-94.6504 421.528 -33.3495 340.476 8.26765 265.053C49.8848 189.629 70.6934 119.834 117.934 70.3024C165.176 20.7705 237.724 -8.49828 302.962 2.1961C367.637 13.4533 424.439 64.6738 500.362 104.637Z" fill="#00A6F4"/>
</svg>
